<svg id="Layer_1" data-name="Layer 1" xmlns="http://www.w3.org/2000/svg" viewBox="0 0 835.38 240.94"><defs><style>.cls-1{fill:#0074a7;}.cls-2{fill:#fff;}.cls-3{fill:#414042;}</style></defs><circle class="cls-1" cx="109.77" cy="110.05" r="109.77"/><path class="cls-2" d="M194.78,110.05a85,85,0,1,1-85-85A85,85,0,0,1,194.78,110.05Zm-85-74.41a74.42,74.42,0,1,0,74.41,74.41A74.41,74.41,0,0,0,109.77,35.64Z"/><circle class="cls-3" cx="109.77" cy="110.05" r="74.41"/><circle class="cls-2" cx="169.45" cy="156.82" r="19.21"/><path class="cls-1" d="M247.33,130.52V77.08q.93-30.06,22.46-42.49,21.7-12.42,39.15-12.43H409.13V75.59q-.93,30.07-22.45,42.5Q365,130.52,347.53,130.52Zm119.87-77H321.74q-17.62,0-25.42,5.19-7.05,4.83-7.05,19.11V99.16h45.46q17.63,0,25.42-5.19,7.05-4.83,7.05-19.12Z"/><path class="cls-1" d="M468.35,62.79V99.16h51.4A76.42,76.42,0,0,0,534.4,98a25.56,25.56,0,0,0,10-4,16.31,16.31,0,0,0,5.75-7.43A31,31,0,0,0,552,75V52.77H432.17V22.16h162V75.59q-.93,30.07-22.46,42.5Q550,130.52,532.55,130.52H432.17V62.79Z"/><path class="cls-1" d="M647,22.71V130.52H614.71V22.71Z"/><path class="cls-1" d="M706.3,26.8l.74-4.09Q726,29.4,739.51,35.15a174.4,174.4,0,0,1,22.08,10.94Q777,55.38,797.4,78.38V22.53H834v108H798.7a347,347,0,0,0-25.6-27.65,154.84,154.84,0,0,0-21.9-17.81,107.85,107.85,0,0,0-19.94-10.67,189.17,189.17,0,0,0-22.36-7.51v63.64H672.16v-108H706.3Z"/><path class="cls-3" d="M247.33,142h38v11.37H259.65v10.42h24.24v11.37H259.65v11.37h27.08v11.36h-39.4Z"/><path class="cls-3" d="M312.38,142h18.48a52.77,52.77,0,0,1,12.75,1.5,29.13,29.13,0,0,1,10.53,4.86,23.69,23.69,0,0,1,7.15,8.72,29.3,29.3,0,0,1,2.64,13,26.61,26.61,0,0,1-2.56,12,25.81,25.81,0,0,1-6.91,8.68,30.54,30.54,0,0,1-10,5.33,38.89,38.89,0,0,1-11.92,1.81H312.38Zm12.32,44.53h6.39a34.38,34.38,0,0,0,7.94-.87,17,17,0,0,0,6.35-2.88,14,14,0,0,0,4.23-5.29,18.9,18.9,0,0,0,1.53-8,15.72,15.72,0,0,0-1.53-7.14,14.21,14.21,0,0,0-4.15-5,18.16,18.16,0,0,0-6.12-3,27.06,27.06,0,0,0-7.38-1H324.7Z"/><path class="cls-3" d="M435.22,176.32a27,27,0,0,1-1.5,9.16,20.16,20.16,0,0,1-4.46,7.26,20.61,20.61,0,0,1-7.38,4.82,31.08,31.08,0,0,1-20.45,0,20.44,20.44,0,0,1-7.38-4.82,20.16,20.16,0,0,1-4.46-7.26,27,27,0,0,1-1.5-9.16V142H400.4v33.87a13.65,13.65,0,0,0,.83,4.81,11.58,11.58,0,0,0,2.33,3.83,10.67,10.67,0,0,0,3.59,2.53,11.4,11.4,0,0,0,4.54.91,11.1,11.1,0,0,0,4.5-.91,10.86,10.86,0,0,0,3.56-2.53,11.56,11.56,0,0,0,2.32-3.83,13.43,13.43,0,0,0,.83-4.81V142h12.32Z"/><path class="cls-3" d="M498.93,156.51a12.13,12.13,0,0,0-4.46-3.4,14.88,14.88,0,0,0-6.12-1.18A15.29,15.29,0,0,0,476.78,157a17.36,17.36,0,0,0-3.39,5.72,21.72,21.72,0,0,0,0,14.41,17.87,17.87,0,0,0,3.35,5.69,15.11,15.11,0,0,0,5,3.74,14.39,14.39,0,0,0,6.19,1.35,13.89,13.89,0,0,0,6.71-1.58,13.34,13.34,0,0,0,4.82-4.42l10.26,7.65a21.39,21.39,0,0,1-9,7.35,28,28,0,0,1-11.21,2.36,34.42,34.42,0,0,1-12.08-2,27.7,27.7,0,0,1-9.55-5.88,26.7,26.7,0,0,1-6.28-9.27,34.13,34.13,0,0,1,0-24.32,26.83,26.83,0,0,1,6.28-9.28,27.7,27.7,0,0,1,9.55-5.88,34.65,34.65,0,0,1,12.08-2.05,30.75,30.75,0,0,1,4.94.43,26.34,26.34,0,0,1,5,1.39,22.29,22.29,0,0,1,4.77,2.52,19,19,0,0,1,4.11,3.87Z"/><path class="cls-3" d="M550.63,142h10.19l24.31,55.89H571.24L566.42,186H544.71l-4.65,11.84H526.48Zm4.74,16.26-6.79,17.37h13.66Z"/><path class="cls-3" d="M610.08,152.88h-16V142h44.21v10.9h-16v45H610.08Z"/><path class="cls-3" d="M660.21,142h12.31v55.89H660.21Z"/><path class="cls-3" d="M696.52,169.93a31.55,31.55,0,0,1,2.25-12.16,26.69,26.69,0,0,1,6.28-9.28,27.61,27.61,0,0,1,9.55-5.88,36.59,36.59,0,0,1,24.15,0,27.74,27.74,0,0,1,9.56,5.88,26.81,26.81,0,0,1,6.27,9.28,34,34,0,0,1,0,24.32,26.67,26.67,0,0,1-6.27,9.27,27.74,27.74,0,0,1-9.56,5.88,36.59,36.59,0,0,1-24.15,0,27.61,27.61,0,0,1-9.55-5.88,26.56,26.56,0,0,1-6.28-9.27A31.62,31.62,0,0,1,696.52,169.93Zm12.79,0a20.6,20.6,0,0,0,1.22,7.22,16.58,16.58,0,0,0,3.52,5.69,15.94,15.94,0,0,0,5.48,3.74,19.58,19.58,0,0,0,14.29,0,16.08,16.08,0,0,0,5.49-3.74,16.71,16.71,0,0,0,3.51-5.69,21.89,21.89,0,0,0,0-14.41,16.66,16.66,0,0,0-3.51-5.72,16.25,16.25,0,0,0-5.49-3.75,19.72,19.72,0,0,0-14.29,0,16.11,16.11,0,0,0-5.48,3.75,16.53,16.53,0,0,0-3.52,5.72A20.75,20.75,0,0,0,709.31,169.93Z"/><path class="cls-3" d="M781,142h16.73l23.77,38.84h.15V142H834v55.89H817.85l-24.39-39.78h-.16v39.78H781Z"/><path class="cls-3" d="M258.58,210.2h3.13l10.92,25.51h-4l-2.56-6.3H253.89l-2.52,6.3h-4Zm6.19,16.18L260,214.67H260l-4.83,11.71Z"/><path class="cls-3" d="M304.52,210.2H308v18.23c0,6.42-4.61,7.93-7.46,7.93-3.6,0-6.23-1.84-6.92-5.58L297,230a3.47,3.47,0,0,0,3.53,3.1c3.42,0,4-2.92,4-5.8Z"/><path class="cls-3" d="M319.22,210.2h16.47v3.25h-13v7.6h12.11v3.24H322.68v8.18h13.66v3.24H319.22Z"/><path class="cls-3" d="M346.53,210.2h4.54l14.06,21h.07v-21h3.46v25.51h-4.4l-14.19-21H350v21h-3.46Z"/><path class="cls-3" d="M379.94,210.2h8.9c10.77,0,13.4,8,13.4,12.76,0,6.52-4.86,12.75-14,12.75h-8.32Zm3.46,22.27h4.36c5.83,0,10.81-3.21,10.81-9.51,0-3.25-1.7-9.51-10-9.51H383.4Z"/><path class="cls-3" d="M420.51,210.2h3.14l10.91,25.51h-4l-2.56-6.3H415.83l-2.52,6.3h-4Zm6.2,16.18L422,214.67h-.07l-4.83,11.71Z"/><path class="cls-3" d="M442.93,210.2h5.15l8.1,19.31h.15l8-19.31h5.15v25.51h-3.45v-21H466l-8.61,21h-2.3l-8.61-21h-.08v21h-3.45Z"/><path class="cls-3" d="M489.12,210.2h3.13l10.92,25.51h-4l-2.56-6.3H484.43l-2.52,6.3h-4Zm6.2,16.18-4.76-11.71h-.07l-4.83,11.71Z"/><path class="cls-3" d="M511.78,210.2h9c6.52,0,8.17,3.93,8.17,7.14a6.83,6.83,0,0,1-6.26,6.73l7.24,11.64h-4.33l-6.48-11.24h-3.86v11.24h-3.46Zm3.46,11.24h4.54c2.74,0,5.48-.64,5.48-4.1s-2.74-4.11-5.48-4.11h-4.54Z"/><path class="cls-3" d="M539.1,210.2h3.46v11h.29l11.27-11H559L546.63,222l13.15,13.73h-5L542.85,223h-.29v12.75H539.1Z"/><path class="cls-3" d="M583.06,210.2h16.47v3.25h-13v7.6h12.1v3.24h-12.1v8.18h13.65v3.24H583.06Z"/><path class="cls-3" d="M628.14,215.72A7.84,7.84,0,0,0,622,212.8c-5.72,0-9.51,4.57-9.51,10.37,0,5.37,3.57,10,9.51,10a7.86,7.86,0,0,0,6.67-3.43l2.92,2.2a11.86,11.86,0,0,1-9.66,4.47,13.13,13.13,0,0,1-13.11-13.19c0-7.92,5.44-13.62,13.29-13.62a11.19,11.19,0,0,1,8.94,4Z"/><path class="cls-3" d="M639.45,223a13,13,0,0,1,13.3-13.41c7.78,0,13.29,5.84,13.29,13.41a13.3,13.3,0,1,1-26.59,0Zm22.92,0c0-5.59-3.79-10.16-9.62-10.16s-9.62,4.57-9.62,10.16,3.78,10.16,9.62,10.16S662.37,228.54,662.37,223Z"/><path class="cls-3" d="M677.07,230.38a6.38,6.38,0,0,0,5.41,2.74c2.27,0,5.08-1.44,5.08-4.25,0-5.88-12.58-2.24-12.58-12.18,0-3,2.52-7.14,8.65-7.14,2.77,0,5.44.58,7.35,2.92L688.17,215a5.37,5.37,0,0,0-4.54-2.23c-3.82,0-5,2.3-5,3.89,0,6.45,12.57,2.59,12.57,11.78,0,4.94-4,7.89-8.86,7.89-3.28,0-6.41-1.12-8.15-3.53Z"/><path class="cls-3" d="M707.66,224.83,698,210.2h4.43l6.95,11.21,7.17-11.21h4.22l-9.66,14.63v10.88h-3.46Z"/><path class="cls-3" d="M729.75,230.38a6.38,6.38,0,0,0,5.41,2.74c2.27,0,5.08-1.44,5.08-4.25,0-5.88-12.58-2.24-12.58-12.18,0-3,2.53-7.14,8.65-7.14,2.77,0,5.44.58,7.35,2.92L740.85,215a5.37,5.37,0,0,0-4.54-2.23c-3.82,0-5,2.3-5,3.89,0,6.45,12.57,2.59,12.57,11.78,0,4.94-4,7.89-8.86,7.89-3.28,0-6.41-1.12-8.14-3.53Z"/><path class="cls-3" d="M759.66,213.45h-8.22V210.2h19.89v3.25h-8.21v22.26h-3.46Z"/><path class="cls-3" d="M780.31,210.2h16.46v3.25h-13v7.6h12.1v3.24h-12.1v8.18h13.65v3.24H780.31Z"/><path class="cls-3" d="M807.37,210.2h5.15l8.11,19.31h.14l8-19.31H834v25.51H830.5v-21h-.07l-8.61,21h-2.31l-8.61-21h-.07v21h-3.46Z"/></svg>