<svg role="img" viewBox="0 0 24 24" xmlns="http://www.w3.org/2000/svg" id="Pwa--Streamline-Simple-Icons" height="24" width="24">
  <desc>
    Pwa Streamline Icon: https://streamlinehq.com
  </desc>
  <title>PWA</title>
  <path d="M20.5967 7.482 24 16.518h-2.5098l-0.5816 -1.6184h-3.2452l0.6933 -1.7532h2.0019l-0.95 -2.6597 1.1881 -3.0047zm-8.111 0 1.7722 5.8393L16.75 7.482h2.4154l-3.6433 9.036h-2.3833l-1.6395 -5.2366 -1.7196 5.2366h-2.377l-1.233 -2.1161 1.2144 -3.7415 1.342 2.6609L10.629 7.482h1.8566zm-8.7453 0c1.0635 0 1.8713 0.3055 2.4234 0.9166a2.647 2.647 0 0 1 0.2806 0.3684l-1.0753 3.3128 -0.3847 1.1854c-0.352 0.1006 -0.7533 0.1509 -1.204 0.1509H2.2928v3.102H0V7.482zm-0.5816 1.7532h-0.866v2.4276h0.8597c0.5577 0 0.9406 -0.1194 1.1485 -0.3582 0.1896 -0.215 0.2845 -0.5058 0.2845 -0.8724 0 -0.364 -0.1079 -0.6544 -0.3235 -0.8714 -0.2157 -0.217 -0.5834 -0.3256 -1.1032 -0.3256z" fill="#000000" stroke-width="1"></path>
</svg>