<svg xmlns="http://www.w3.org/2000/svg" width="124" height="28" fill="none"><path d="M110.89 10.885V8.51h-3.704v16.262h3.89v-7.887c.006-1.107.202-2.036.592-2.777.395-.746.95-1.31 1.671-1.685.715-.376 1.571-.563 2.563-.563.14 0 .281.005.426.02.15.015.306.04.477.071V8.327c-1.39 0-2.578.214-3.575.64-.996.426-1.774 1.065-2.34 1.919M96.284 21.728a5.351 5.351 0 01-1.956-.355 4.738 4.738 0 01-1.573-1.02 4.696 4.696 0 01-1.042-1.604c-.25-.625-.374-1.33-.38-2.107.006-.777.13-1.482.38-2.107a4.709 4.709 0 011.043-1.604 4.74 4.74 0 011.572-1.02 5.333 5.333 0 011.956-.355c.704 0 1.354.12 1.955.355.597.24 1.121.579 1.572 1.02.446.447.793.98 1.043 1.604.249.625.375 1.33.379 2.107-.004.777-.13 1.482-.379 2.107a4.699 4.699 0 01-1.043 1.603 4.742 4.742 0 01-1.572 1.02c-.6.234-1.25.356-1.956.356zm4.887-19.552v8.343a6.083 6.083 0 00-2.36-1.654c-.915-.36-1.916-.539-2.995-.539-1.213.006-2.329.2-3.346.589a7.779 7.779 0 00-2.667 1.67 7.695 7.695 0 00-1.758 2.624c-.416 1.02-.628 2.162-.634 3.43.006 1.27.218 2.412.633 3.436a7.681 7.681 0 001.76 2.63 7.739 7.739 0 002.666 1.685c1.017.39 2.133.589 3.346.594 1.142 0 2.18-.193 3.119-.574a6.197 6.197 0 002.392-1.74v2.1h3.735V2.176h-3.89l-.001.001zm-22.2 6.152c-1.218 0-2.318.199-3.293.584-.975.386-1.79.955-2.433 1.7V8.511H69.54v16.262h3.89V16.55c.006-1.086.204-1.994.587-2.72.384-.725.924-1.274 1.619-1.634.695-.366 1.504-.548 2.433-.548.836 0 1.547.158 2.133.471.586.31 1.037.787 1.348 1.422.312.634.473 1.437.473 2.401v8.832h3.891v-9.319c-.005-1.223-.182-2.284-.524-3.182-.342-.899-.83-1.635-1.452-2.218a5.946 5.946 0 00-2.2-1.304c-.84-.28-1.763-.422-2.766-.422v-.001zm-16.345.184v8.223c-.005 1.086-.197 1.994-.575 2.72-.378.726-.909 1.269-1.589 1.635-.678.365-1.473.549-2.38.549-1.241.005-2.195-.355-2.87-1.071-.674-.716-1.012-1.813-1.023-3.285V8.51H50.3v9.289c.004 1.222.177 2.288.519 3.192.342.904.83 1.65 1.462 2.238.633.594 1.386 1.03 2.262 1.325.871.29 1.847.431 2.915.431a8.1 8.1 0 002.066-.26 6.844 6.844 0 001.825-.77 5.825 5.825 0 001.464-1.254v2.07h3.704V8.51h-3.89v.002zM39.9 21.729a5.3 5.3 0 01-1.952-.355 4.624 4.624 0 01-1.56-1.02 4.755 4.755 0 01-1.033-1.604c-.245-.625-.368-1.33-.374-2.107.006-.777.13-1.482.374-2.107a4.769 4.769 0 011.032-1.604c.446-.441.965-.782 1.561-1.02a5.282 5.282 0 011.951-.355c.706 0 1.37.12 1.966.355a4.66 4.66 0 011.573 1.02 4.7 4.7 0 011.037 1.604c.244.625.369 1.33.374 2.107-.005.777-.13 1.482-.374 2.107a4.696 4.696 0 01-1.037 1.603 4.64 4.64 0 01-1.573 1.02 5.366 5.366 0 01-1.965.356zm0 3.259c1.297-.006 2.484-.214 3.564-.62a8.283 8.283 0 002.812-1.726 7.873 7.873 0 001.837-2.64c.435-1.014.653-2.137.659-3.36-.006-1.223-.223-2.34-.66-3.355a7.776 7.776 0 00-1.836-2.629 8.259 8.259 0 00-2.812-1.715c-1.08-.406-2.267-.61-3.565-.615-1.281.005-2.459.208-3.533.615a8.322 8.322 0 00-2.802 1.715 7.697 7.697 0 00-1.841 2.629c-.436 1.015-.659 2.132-.664 3.355.005 1.223.228 2.346.664 3.36a7.817 7.817 0 001.841 2.64 8.361 8.361 0 002.802 1.726c1.074.406 2.252.614 3.533.62zm79.18-.214h3.891V8.51h-3.891v16.264z" fill="#fff"></path><path d="M121.039 5.83c.493-.005.923-.112 1.296-.32.374-.208.664-.487.872-.843.213-.36.317-.761.322-1.213a2.067 2.067 0 00-.327-1.122 2.251 2.251 0 00-.883-.781 2.866 2.866 0 00-1.281-.29 2.686 2.686 0 00-1.282.31 2.303 2.303 0 00-.883.812 2.225 2.225 0 00-.326 1.163c.005.431.114.817.326 1.162.214.34.509.614.883.812.374.204.799.305 1.282.31" fill="#9BC6E6"></path><path fill-rule="evenodd" clip-rule="evenodd" d="M17.583 24.403v3.596H0V14.61h8.963v9.804h7.298c.47-.003.912-.007 1.323-.012" fill="#fff"></path><path opacity=".7" fill-rule="evenodd" clip-rule="evenodd" d="M13.296 15.274v5.606h4.002c1.562 0 2.551-.039 2.97-.126.644-.113 1.168-.396 1.572-.836.405-.443.61-1.04.61-1.782 0-.63-.16-1.162-.47-1.6-.314-.44-.763-.763-1.352-.963-.59-.2-1.872-.298-3.839-.298h-3.494v-.001zm15.585-.663v13.387h-9.405v-3.63c.955-.024 1.624-.056 2.005-.095 1.152-.127 2.122-.46 2.905-.995.783-.538 1.402-1.26 1.857-2.159a6.13 6.13 0 00.679-2.784c0-1.21-.35-2.265-1.053-3.163a4.64 4.64 0 00-.515-.56h3.527z" fill="#fff"></path><path fill-rule="evenodd" clip-rule="evenodd" d="M13.295 6.934v4.848h2.836c1.687 0 2.735-.024 3.144-.073.74-.082 1.323-.332 1.747-.747.425-.415.634-.962.634-1.64 0-.68-.18-1.177-.544-1.583-.369-.405-.913-.65-1.632-.732-.429-.049-1.662-.073-3.699-.073h-2.486zM10.86 3.442V0h18.02v12.76h-5.113a4.98 4.98 0 001.293-1.333c.54-.82.808-1.725.808-2.705 0-.904-.22-1.724-.658-2.452a5.401 5.401 0 00-1.642-1.754 5.6 5.6 0 00-2.236-.864c-.834-.141-2.102-.21-3.798-.21H10.86z" fill="#1387DB"></path><path fill-rule="evenodd" clip-rule="evenodd" d="M0 0h8.966v3.442h-.003v9.318H0V0z" fill="#9BC6E6"></path></svg>